<svg width="24.000000" height="24.000000" viewBox="0 0 24 24" fill="none" xmlns="http://www.w3.org/2000/svg" xmlns:xlink="http://www.w3.org/1999/xlink">
	<desc>
			Created with Pixso.
	</desc>
	<defs>
		<clipPath id="clip1_1689">
			<rect id="arrow-right" width="24.000000" height="24.000000" fill="white" fill-opacity="0"/>
		</clipPath>
	</defs>
	<g clip-path="url(#clip1_1689)">
		<path id="Union" d="M14.7071 5.29291C14.3166 4.90234 13.6834 4.90234 13.2929 5.29291C12.9024 5.68341 12.9024 6.31659 13.2929 6.70709L17.5858 11L4 11C3.44772 11 3 11.4477 3 12C3 12.5523 3.44772 13 4 13L17.5858 13L13.2929 17.2929C12.9024 17.6834 12.9024 18.3166 13.2929 18.7071C13.6834 19.0977 14.3166 19.0977 14.7071 18.7071L20.7071 12.7071C21.0976 12.3166 21.0976 11.6834 20.7071 11.2929L14.7071 5.29291Z" clip-rule="evenodd" fill="#DB4546" fill-opacity="1.000000" fill-rule="evenodd"/>
	</g>
</svg>
