<svg width="24.000000" height="24.000000" viewBox="0 0 24 24" fill="none" xmlns="http://www.w3.org/2000/svg" xmlns:xlink="http://www.w3.org/1999/xlink">
	<desc>
			Created with Pixso.
	</desc>
	<defs>
		<clipPath id="clip1_1621">
			<rect id="info" width="24.000000" height="24.000000" fill="white" fill-opacity="0"/>
		</clipPath>
	</defs>
	<g clip-path="url(#clip1_1621)">
		<path id="Union" d="M4.22183 4.2218C6.28473 2.15894 9.08261 1 12 1C14.9174 1 17.7153 2.15894 19.7782 4.2218C21.8411 6.28473 23 9.08264 23 12C23 14.9174 21.8411 17.7153 19.7782 19.7782C17.7153 21.8411 14.9174 23 12 23C9.08261 23 6.28473 21.8411 4.22183 19.7782C2.15894 17.7153 1 14.9174 1 12C1 9.08264 2.15894 6.28473 4.22183 4.2218ZM12 3C9.61304 3 7.32385 3.94824 5.63605 5.63605C3.94821 7.32385 3 9.61304 3 12C3 14.387 3.94821 16.6761 5.63605 18.364C7.32385 20.0518 9.61304 21 12 21C14.387 21 16.6761 20.0518 18.364 18.364C20.0518 16.6761 21 14.387 21 12C21 9.61304 20.0518 7.32385 18.364 5.63605C16.6761 3.94824 14.387 3 12 3ZM11 8C11 7.44769 11.4477 7 12 7L12.01 7C12.5623 7 13.01 7.44769 13.01 8C13.01 8.55231 12.5623 9 12.01 9L12 9C11.4477 9 11 8.55231 11 8ZM13 12C13 11.4477 12.5523 11 12 11C11.4477 11 11 11.4477 11 12L11 16C11 16.5523 11.4477 17 12 17C12.5523 17 13 16.5523 13 16L13 12Z" clip-rule="evenodd" fill="#B0B1B6" fill-opacity="1.000000" fill-rule="evenodd"/>
	</g>
</svg>
